<svg width="24" height="24" viewBox="0 0 24 24" fill="none" xmlns="http://www.w3.org/2000/svg">
<path d="M17.29 11.9681C17.291 12.1428 17.2577 12.3159 17.1918 12.4777C17.1259 12.6395 17.0289 12.7867 16.9061 12.9109C16.7833 13.0352 16.6373 13.134 16.4763 13.2018C16.3154 13.2696 16.1426 13.3051 15.968 13.3061C15.7932 13.3052 15.6204 13.2698 15.4593 13.2021C15.2982 13.1343 15.1521 13.0355 15.0292 12.9113C14.9064 12.787 14.8092 12.6397 14.7433 12.4779C14.6773 12.3161 14.6439 12.1428 14.645 11.9681C14.6441 11.7934 14.6775 11.6203 14.7435 11.4586C14.8095 11.2969 14.9067 11.1497 15.0296 11.0256C15.1524 10.9014 15.2985 10.8027 15.4595 10.735C15.6206 10.6673 15.7933 10.632 15.968 10.6311C16.698 10.6311 17.29 11.2301 17.29 11.9681Z" fill="black"/>
<path fill-rule="evenodd" clip-rule="evenodd" d="M18.132 7.40809C17.283 7.28809 16.19 7.28809 14.827 7.28809H9.173C7.81 7.28809 6.717 7.28809 5.868 7.40809C4.991 7.53309 4.26 7.80009 3.716 8.42809C3.173 9.05609 3.006 9.82409 3 10.7211C2.994 11.5871 3.139 12.6831 3.319 14.0491L3.684 16.8211C3.825 17.8891 3.939 18.7541 4.116 19.4311C4.301 20.1351 4.573 20.7191 5.084 21.1711C5.594 21.6241 6.204 21.8201 6.918 21.9111C7.605 22.0001 8.468 22.0001 9.533 22.0001H14.467C15.532 22.0001 16.395 22.0001 17.082 21.9121C17.797 21.8201 18.405 21.6241 18.916 21.1721C19.427 20.7191 19.699 20.1351 19.884 19.4311C20.061 18.7541 20.175 17.8891 20.316 16.8211L20.681 14.0491C20.861 12.6831 21.006 11.5871 21 10.7211C20.993 9.82409 20.828 9.05609 20.284 8.42809C19.74 7.80009 19.009 7.53309 18.132 7.40809ZM6.052 8.73209C5.326 8.83609 4.958 9.02409 4.712 9.30909C4.464 9.59409 4.328 9.98809 4.322 10.7301C4.317 11.4911 4.448 12.4941 4.637 13.9251L4.687 14.3041L5.058 14.0321C6.018 13.3291 7.434 13.3641 8.346 14.1271L11.73 16.9601C12.05 17.2281 12.601 17.2781 12.999 17.0441L13.234 16.9051C14.359 16.2431 15.868 16.3131 16.906 17.0951L18.738 18.4751C18.828 17.9801 18.909 17.3711 19.011 16.6001L19.363 13.9251C19.552 12.4951 19.683 11.4911 19.677 10.7301C19.672 9.98809 19.536 9.59409 19.289 9.31009C19.042 9.02409 18.674 8.83609 17.947 8.73209C17.202 8.62609 16.202 8.62509 14.775 8.62509H9.225C7.798 8.62509 6.797 8.62609 6.052 8.73209Z" fill="black"/>
<path opacity="0.7" d="M6.88001 4.5C5.62801 4.5 4.60101 5.34 4.25901 6.454C4.25204 6.47724 4.24537 6.50058 4.23901 6.524C4.59701 6.404 4.96901 6.324 5.34701 6.271C6.31901 6.132 7.54801 6.132 8.97601 6.132H15.178C16.606 6.132 17.835 6.132 18.808 6.271C19.185 6.324 19.558 6.403 19.916 6.524C19.9097 6.50058 19.903 6.47724 19.896 6.454C19.553 5.34 18.526 4.5 17.276 4.5H6.88001Z" fill="black"/>
<path opacity="0.4" d="M8.859 2H15.141C15.35 2 15.511 2 15.651 2.015C16.1297 2.06859 16.5844 2.25296 16.9652 2.54789C17.3461 2.84282 17.6383 3.23693 17.81 3.687H6.19C6.36165 3.23693 6.65393 2.84282 7.03476 2.54789C7.4156 2.25296 7.8703 2.06859 8.349 2.015C8.489 2 8.649 2 8.859 2Z" fill="black"/>
</svg>
